<svg xmlns="http://www.w3.org/2000/svg" x="0" y="0" enable-background="new 0 0 1080 1080" viewBox="0 0 1080 1080"><style>.st0{fill:#F5333F;} .st1{fill:#EF3741;} .st2{fill:none;stroke:#011E41;stroke-width:16;stroke-miterlimit:10;} .st3{display:none;} .st4{display:inline;} .st5{fill:none;stroke:#D1D3D4;stroke-width:2;stroke-miterlimit:10;} .st6{display:inline;fill:none;stroke:#BCBEC0;stroke-width:4;stroke-miterlimit:10;} .st7{fill:none;stroke:#BCBEC0;stroke-width:4;stroke-miterlimit:10;} .st8{display:inline;fill:none;stroke:#D1D3D4;stroke-width:2;stroke-miterlimit:10;} .st9{fill:none;stroke:#011E41;stroke-width:16;stroke-linejoin:bevel;stroke-miterlimit:10;} .st10{display:none;opacity:0.35;fill:none;stroke:#000000;stroke-width:16;stroke-miterlimit:10;} .st11{fill:none;stroke:#F5333F;stroke-width:16;stroke-miterlimit:10;} .st12{fill:#011E41;} .st13{fill:none;stroke:#011E41;stroke-width:16;stroke-linecap:square;stroke-miterlimit:10;} .st14{fill:none;stroke:#011E41;stroke-width:16;stroke-linecap:round;stroke-miterlimit:10;} .st15{fill:none;stroke:#EF3741;stroke-width:16;stroke-miterlimit:10;} .st16{fill:#F5333F;stroke:#011E41;stroke-width:16;stroke-miterlimit:10;} .st17{fill:#F9F9F9;} .st18{font-family:&apos;Montserrat-Medium&apos;;} .st19{font-size:55px;}</style><g id="Icons"><circle cx="520" cy="562.5" r="146.1" class="st0"/><path d="M637.24,651.53c-55.31-49.41-139.18-49.41-194.48,0" class="st2"/><path d="M649.82 542.5L687.27 542.5" class="st2"/><path d="M393.9 542.5L431.36 542.5" class="st2"/><path d="M540 512.45L540 391.4" class="st2"/><path d="M540 683.1L540 576.98" class="st2"/><path d="M442.76,433.47c55.31,49.41,139.18,49.41,194.48,0" class="st2"/><circle cx="540" cy="542.5" r="146.1" class="st2"/><path d="M509.66 519.73L528.81 549.28 540.26 530.78 551.7 549.28 570.08 519.73" class="st2"/><path d="M434.7 519.73L453.85 549.28 465.3 530.78 476.74 549.28 495.12 519.73" class="st2"/><path d="M584.62 519.73L603.77 549.28 615.22 530.78 626.66 549.28 645.04 519.73" class="st2"/><path d="M618.71 512.45c-3.09-26.84-10.36-52.42-21.83-73.26-31.41-57.05-82.34-57.05-113.76 0-11.47 20.84-18.74 46.42-21.83 73.26M461.83 576.98c3.36 25.22 10.45 49.14 21.3 68.83 31.41 57.06 82.34 57.06 113.76 0 10.84-19.69 17.94-43.61 21.3-68.83" class="st2"/><path d="M506.84 657.77L545.23 696.16 506.84 696.16z" class="st0"/></g><g id="Text" class="st3"><text class="st4 st18 st19" transform="matrix(1 0 0 1 112.634 950.0047)">Web</text></g></svg>