<svg xmlns="http://www.w3.org/2000/svg" x="0" y="0" enable-background="new 0 0 1080 1080" viewBox="0 0 1080 1080"><style>.st0{fill:#F5333F;} .st1{fill:#EF3741;} .st2{fill:none;stroke:#011E41;stroke-width:16;stroke-miterlimit:10;} .st3{display:none;} .st4{display:inline;} .st5{fill:none;stroke:#D1D3D4;stroke-width:2;stroke-miterlimit:10;} .st6{display:inline;fill:none;stroke:#BCBEC0;stroke-width:4;stroke-miterlimit:10;} .st7{fill:none;stroke:#BCBEC0;stroke-width:4;stroke-miterlimit:10;} .st8{display:inline;fill:none;stroke:#D1D3D4;stroke-width:2;stroke-miterlimit:10;} .st9{fill:none;stroke:#011E41;stroke-width:16;stroke-linejoin:bevel;stroke-miterlimit:10;} .st10{display:none;opacity:0.35;fill:none;stroke:#000000;stroke-width:16;stroke-miterlimit:10;} .st11{fill:none;stroke:#F5333F;stroke-width:16;stroke-miterlimit:10;} .st12{fill:#011E41;} .st13{fill:none;stroke:#011E41;stroke-width:16;stroke-linecap:square;stroke-miterlimit:10;} .st14{fill:none;stroke:#011E41;stroke-width:16;stroke-linecap:round;stroke-miterlimit:10;} .st15{fill:none;stroke:#EF3741;stroke-width:16;stroke-miterlimit:10;} .st16{fill:#F5333F;stroke:#011E41;stroke-width:16;stroke-miterlimit:10;} .st17{fill:#F9F9F9;} .st18{font-family:&apos;Montserrat-Medium&apos;;} .st19{font-size:55px;}</style><g id="Icons"><path d="M571.83 505.08L673.48 535.43 673.48 708.35 571.83 678 470.17 708.35 368.52 678 368.52 505.08 470.17 535.43z" class="st0"/><circle cx="540" cy="442.32" r="25.98" class="st2"/><path d="M594.86,442.32c0,30.3-54.86,95.87-54.86,95.87s-54.86-65.57-54.86-95.87c0-30.3,24.56-54.86,54.86-54.86 C570.3,387.47,594.86,412.03,594.86,442.32z" class="st2"/><path d="M572.03 494.69L590.83 489.08 692.48 519.43 692.48 692.35 590.83 662 489.17 692.35 387.52 662 387.52 489.08 489.17 519.43 518.82 510.58" class="st2"/><path d="M387.52 575.54L489.17 605.89 590.83 575.54 692.48 605.89" class="st2"/><path d="M590.83 489.08L590.83 662" class="st2"/><path d="M489.43 519.61L489.43 692.53" class="st2"/></g><g id="Text" class="st3"><text class="st4 st18 st19" transform="matrix(1 0 0 1 112.6339 950.0047)">Map</text></g></svg>