<svg xmlns="http://www.w3.org/2000/svg" x="0" y="0" enable-background="new 0 0 1080 1080" viewBox="0 0 1080 1080"><style>.st0{fill:#F5333F;} .st1{fill:#EF3741;} .st2{fill:none;stroke:#011E41;stroke-width:16;stroke-miterlimit:10;} .st3{display:none;} .st4{display:inline;} .st5{fill:none;stroke:#D1D3D4;stroke-width:2;stroke-miterlimit:10;} .st6{display:inline;fill:none;stroke:#BCBEC0;stroke-width:4;stroke-miterlimit:10;} .st7{fill:none;stroke:#BCBEC0;stroke-width:4;stroke-miterlimit:10;} .st8{display:inline;fill:none;stroke:#D1D3D4;stroke-width:2;stroke-miterlimit:10;} .st9{fill:none;stroke:#011E41;stroke-width:16;stroke-linejoin:bevel;stroke-miterlimit:10;} .st10{display:none;opacity:0.35;fill:none;stroke:#000000;stroke-width:16;stroke-miterlimit:10;} .st11{fill:none;stroke:#F5333F;stroke-width:16;stroke-miterlimit:10;} .st12{fill:#011E41;} .st13{fill:none;stroke:#011E41;stroke-width:16;stroke-linecap:square;stroke-miterlimit:10;} .st14{fill:none;stroke:#011E41;stroke-width:16;stroke-linecap:round;stroke-miterlimit:10;} .st15{fill:none;stroke:#EF3741;stroke-width:16;stroke-miterlimit:10;} .st16{fill:#F5333F;stroke:#011E41;stroke-width:16;stroke-miterlimit:10;} .st17{fill:#F9F9F9;} .st18{font-family:&apos;Montserrat-Medium&apos;;} .st19{font-size:55px;}</style><g id="Icons"><path d="M355.02 741.19h155.33V363.93l-101.58 20.52v112.44c0 29.64-24.06 53.67-53.75 53.67h0V741.19zM696.8 741.19H541.47V363.93l101.58 20.52v112.44c0 29.64 21.06 53.67 50.75 53.67h3V741.19z" class="st0"/><path d="M369.11 619.71L369.11 646.1" class="st2"/><path d="M369.11,673.38v53.04h56.75h37.1h61.48V348.59l-101.58,20.55v112.6c0,29.68-24.06,53.75-53.75,53.75h0v57.97" class="st2"/><path d="M428.17 443.07H522.84V468.45H428.17z" class="st2"/><path d="M495.66 597.12L495.66 673.38 416.29 673.38 416.29 597.12" class="st2"/><path d="M473.4,621.05h-34.85c-12.29,0-22.26-9.97-22.26-22.26v-6.08h79.37v6.08 C495.66,611.09,485.7,621.05,473.4,621.05z" class="st2"/><path d="M350.34 646.1H387.88V673.38H350.34z" class="st2"/><path d="M350.34 592.43H387.88V619.7099999999999H350.34z" class="st2"/><path d="M549.55 430.75L524.91 430.75" class="st2"/><path d="M524.91 726.42L549.55 726.42" class="st2"/><path d="M710.89 619.71L710.89 646.1" class="st2"/><path d="M710.89,673.38v53.04h-56.75h-37.1h-61.48V348.59l101.58,20.55v112.6c0,29.68,21.06,53.75,50.75,53.75h3 v57.97" class="st2"/><path d="M557.16 443.07H651.8299999999999V468.45H557.16z" class="st2" transform="matrix(-1 -4.488466e-11 4.488466e-11 -1 1208.9982 911.5235)"/><path d="M584.34 597.12L584.34 673.38 663.71 673.38 663.71 597.12" class="st2"/><path d="M606.6,621.05h34.85c12.29,0,22.26-9.97,22.26-22.26v-6.08h-79.37v6.08 C584.34,611.09,594.3,621.05,606.6,621.05z" class="st2"/><path d="M692.12 646.1H729.66V673.38H692.12z" class="st2" transform="matrix(-1 -4.477142e-11 4.477142e-11 -1 1421.7849 1319.4752)"/><path d="M692.12 592.43H729.66V619.7099999999999H692.12z" class="st2" transform="matrix(-1 -4.506185e-11 4.506185e-11 -1 1421.7849 1212.1438)"/></g><g id="Text" class="st3"><text class="st4 st18 st19" transform="matrix(1 0 0 1 112.6328 950)">SURGE</text></g></svg>