<svg xmlns="http://www.w3.org/2000/svg" x="0" y="0" enable-background="new 0 0 1080 1080" viewBox="0 0 1080 1080"><style>.st0{fill:#F5333F;} .st1{fill:#EF3741;} .st2{fill:none;stroke:#011E41;stroke-width:16;stroke-miterlimit:10;} .st3{display:none;} .st4{display:inline;} .st5{fill:none;stroke:#D1D3D4;stroke-width:2;stroke-miterlimit:10;} .st6{display:inline;fill:none;stroke:#BCBEC0;stroke-width:4;stroke-miterlimit:10;} .st7{fill:none;stroke:#BCBEC0;stroke-width:4;stroke-miterlimit:10;} .st8{display:inline;fill:none;stroke:#D1D3D4;stroke-width:2;stroke-miterlimit:10;} .st9{fill:none;stroke:#011E41;stroke-width:16;stroke-linejoin:bevel;stroke-miterlimit:10;} .st10{display:none;opacity:0.35;fill:none;stroke:#000000;stroke-width:16;stroke-miterlimit:10;} .st11{fill:none;stroke:#F5333F;stroke-width:16;stroke-miterlimit:10;} .st12{fill:#011E41;} .st13{fill:none;stroke:#011E41;stroke-width:16;stroke-linecap:square;stroke-miterlimit:10;} .st14{fill:none;stroke:#011E41;stroke-width:16;stroke-linecap:round;stroke-miterlimit:10;} .st15{fill:none;stroke:#EF3741;stroke-width:16;stroke-miterlimit:10;} .st16{fill:#F5333F;stroke:#011E41;stroke-width:16;stroke-miterlimit:10;} .st17{fill:#F9F9F9;} .st18{font-family:&apos;Montserrat-Medium&apos;;} .st19{font-size:55px;}</style><g id="Icons"><circle cx="510" cy="530" r="146.1" class="st0"/><path d="M637.24,649.03c-55.31-49.41-139.18-49.41-194.48,0" class="st2"/><ellipse cx="540" cy="540" class="st2" rx="80.44" ry="146.1"/><path d="M394.15 540L685.85 540" class="st2"/><path d="M540 680.6L540 388.9" class="st2"/><path d="M442.76,430.97c55.31,49.41,139.18,49.41,194.48,0" class="st2"/><circle cx="540" cy="540" r="146.1" class="st2"/><path d="M546.01,393.89c13.62-6.87,27.4-12.41,41.09-16.38c89.74-26.01,141.4,25.65,115.39,115.39 S582.64,676.47,492.9,702.48s-141.4-25.65-115.39-115.39c5.06-17.47,12.7-35.1,22.37-52.35" class="st2"/><circle cx="687.82" cy="687.82" r="21.39" class="st2"/></g><g id="Text" class="st3"><text class="st4 st18 st19" transform="matrix(1 0 0 1 112.6333 950)">Largest humanitarian network</text></g></svg>