<svg xmlns="http://www.w3.org/2000/svg" x="0" y="0" enable-background="new 0 0 1080 1080" viewBox="0 0 1080 1080"><style>.st0{fill:#F5333F;} .st1{fill:#EF3741;} .st2{fill:none;stroke:#011E41;stroke-width:16;stroke-miterlimit:10;} .st3{display:none;} .st4{display:inline;} .st5{fill:none;stroke:#D1D3D4;stroke-width:2;stroke-miterlimit:10;} .st6{display:inline;fill:none;stroke:#BCBEC0;stroke-width:4;stroke-miterlimit:10;} .st7{fill:none;stroke:#BCBEC0;stroke-width:4;stroke-miterlimit:10;} .st8{display:inline;fill:none;stroke:#D1D3D4;stroke-width:2;stroke-miterlimit:10;} .st9{fill:none;stroke:#011E41;stroke-width:16;stroke-linejoin:bevel;stroke-miterlimit:10;} .st10{display:none;opacity:0.35;fill:none;stroke:#000000;stroke-width:16;stroke-miterlimit:10;} .st11{fill:none;stroke:#F5333F;stroke-width:16;stroke-miterlimit:10;} .st12{fill:#011E41;} .st13{fill:none;stroke:#011E41;stroke-width:16;stroke-linecap:square;stroke-miterlimit:10;} .st14{fill:none;stroke:#011E41;stroke-width:16;stroke-linecap:round;stroke-miterlimit:10;} .st15{fill:none;stroke:#EF3741;stroke-width:16;stroke-miterlimit:10;} .st16{fill:#F5333F;stroke:#011E41;stroke-width:16;stroke-miterlimit:10;} .st17{fill:#F9F9F9;} .st18{font-family:&apos;Montserrat-Medium&apos;;} .st19{font-size:55px;}</style><g id="Icons"><path d="M681.37 412.29L344.76 412.29 344.76 648.97 393.36 648.97 412.58 707.71 431.79 648.97 681.37 648.97z" class="st0"/><path d="M642.75 614.72L658.38 637.76 693.02 601.72" class="st2"/><path d="M701.37 588.35L701.37 392.29 364.76 392.29 364.76 628.97 413.36 628.97 432.58 687.71 451.79 628.97 619.97 628.97" class="st2"/><circle cx="667.69" cy="620.89" r="47.56" class="st2"/><path d="M415.02 472.18L415.02 548.17" class="st2"/><path d="M436.58 493.18L436.58 527.16" class="st2"/><path d="M458.13 480.44L458.13 539.9" class="st2"/><path d="M479.69 494.52L479.69 525.82" class="st2"/><path d="M501.24 472.48L501.24 547.86" class="st2"/><path d="M522.8 444.21L522.8 576.13" class="st2"/><path d="M544.36 472.18L544.36 548.17" class="st2"/><path d="M565.91 425.37L565.91 594.97" class="st2"/><path d="M587.47 444.21L587.47 576.13" class="st2"/><path d="M609.02 480.44L609.02 539.9" class="st2"/><path d="M630.58 493.18L630.58 527.16" class="st2"/><path d="M652.14 472.21L652.14 548.13" class="st2"/></g><g id="Text" class="st3"><text class="st4 st18 st19" transform="matrix(1 0 0 1 112.634 950.0047)">Voice recognition</text></g></svg>