<svg xmlns="http://www.w3.org/2000/svg" x="0" y="0" enable-background="new 0 0 1080 1080" viewBox="0 0 1080 1080"><style>.st0{fill:#F5333F;} .st1{fill:#EF3741;} .st2{fill:none;stroke:#011E41;stroke-width:16;stroke-miterlimit:10;} .st3{display:none;} .st4{display:inline;} .st5{fill:none;stroke:#D1D3D4;stroke-width:2;stroke-miterlimit:10;} .st6{display:inline;fill:none;stroke:#BCBEC0;stroke-width:4;stroke-miterlimit:10;} .st7{fill:none;stroke:#BCBEC0;stroke-width:4;stroke-miterlimit:10;} .st8{display:inline;fill:none;stroke:#D1D3D4;stroke-width:2;stroke-miterlimit:10;} .st9{fill:none;stroke:#011E41;stroke-width:16;stroke-linejoin:bevel;stroke-miterlimit:10;} .st10{display:none;opacity:0.35;fill:none;stroke:#000000;stroke-width:16;stroke-miterlimit:10;} .st11{fill:none;stroke:#F5333F;stroke-width:16;stroke-miterlimit:10;} .st12{fill:#011E41;} .st13{fill:none;stroke:#011E41;stroke-width:16;stroke-linecap:square;stroke-miterlimit:10;} .st14{fill:none;stroke:#011E41;stroke-width:16;stroke-linecap:round;stroke-miterlimit:10;} .st15{fill:none;stroke:#EF3741;stroke-width:16;stroke-miterlimit:10;} .st16{fill:#F5333F;stroke:#011E41;stroke-width:16;stroke-miterlimit:10;} .st17{fill:#F9F9F9;} .st18{font-family:&apos;Montserrat-Medium&apos;;} .st19{font-size:55px;}</style><g id="Icons"><path d="M681.29,655.76l30.85-54.67l-23.82-40.34c0.64-5.55,0.99-11.19,1.01-16.91c0.03-9-0.74-17.83-2.24-26.4 l23.72-42.18l-32-54l-51.98,0.59c-8.9-6.37-18.52-11.78-28.73-16.09l-26.14-45.6l-62.77-0.2l-26.43,45.44 c-11.51,4.78-22.3,10.96-32.15,18.33l-51.9,0.51l-30.85,54.67l24.54,41.55c-1.13,7.32-1.73,14.81-1.75,22.44 c-0.02,7.18,0.47,14.23,1.43,21.14l-22.88,40.69l32,54l43.36-0.49c12.55,10.44,26.84,18.85,42.37,24.75l21.12,36.85l62.77,0.2 l21.35-36.71c16.87-6.29,32.31-15.55,45.66-27.14L681.29,655.76z" class="st0"/><path d="M515.8,704.38l17.06-30.46l-13.32-22.4c0.35-3.09,0.53-6.23,0.53-9.41c0-5.01-0.44-9.91-1.29-14.68 l13.12-23.5L514,573.94l-28.91,0.42c-4.96-3.53-10.32-6.52-16.01-8.9l-14.62-25.32h-34.92l-14.62,25.32 c-6.4,2.68-12.39,6.14-17.85,10.25l-28.87,0.38l-17.06,30.46l13.72,23.07c-0.61,4.07-0.93,8.24-0.93,12.48 c0,3.99,0.29,7.92,0.83,11.76l-12.66,22.68L360,706.52l24.12-0.35c7,5.78,14.96,10.44,23.61,13.69l11.81,20.46h34.92l11.81-20.46 c9.38-3.53,17.94-8.71,25.35-15.18L515.8,704.38z" class="st2"/><circle cx="437" cy="640.23" r="44.7" class="st2"/><path d="M721.8,663.12l17.06-30.46l-13.32-22.4c0.35-3.09,0.53-6.23,0.53-9.41c0-5.01-0.44-9.91-1.29-14.68 l13.12-23.5L720,532.69l-28.91,0.42c-4.96-3.53-10.32-6.52-16.01-8.9l-14.62-25.32h-34.92l-14.62,25.32 c-6.4,2.68-12.39,6.14-17.85,10.25l-28.87,0.38l-17.06,30.46l13.72,23.07c-0.61,4.07-0.93,8.24-0.93,12.48 c0,3.99,0.29,7.92,0.83,11.76l-12.66,22.68L566,665.27l24.12-0.35c7,5.78,14.96,10.44,23.61,13.69l11.81,20.46h34.92l11.81-20.46 c9.38-3.53,17.94-8.71,25.35-15.18L721.8,663.12z" class="st2"/><circle cx="643" cy="598.98" r="44.7" class="st2"/><g><path d="M586.1,503.91l17.06-30.46l-13.32-22.4c0.35-3.09,0.53-6.23,0.53-9.41c0-5.01-0.44-9.91-1.29-14.68 l13.12-23.5l-17.89-29.98l-28.91,0.42c-4.96-3.53-10.32-6.52-16.01-8.9l-14.62-25.32h-34.92l-14.62,25.32 c-6.4,2.68-12.39,6.14-17.85,10.25l-28.87,0.38l-17.06,30.46l13.72,23.07c-0.61,4.07-0.93,8.24-0.93,12.48 c0,3.99,0.29,7.92,0.83,11.76l-12.66,22.68l17.89,29.98l24.12-0.35c7,5.78,14.96,10.44,23.61,13.69l11.81,20.46h34.92 l11.81-20.46c9.38-3.53,17.94-8.71,25.35-15.18L586.1,503.91z" class="st2"/><circle cx="507.3" cy="439.77" r="44.7" class="st2"/></g></g><g id="Text" class="st3"><text class="st4 st18 st19" transform="matrix(1 0 0 1 112.6334 950.002)">Work</text></g></svg>