<?xml version="1.0" encoding="utf-8"?>
<!-- Generator: Adobe Illustrator 26.0.1, SVG Export Plug-In . SVG Version: 6.00 Build 0)  -->
<svg version="1.1" id="Layer_1" xmlns="http://www.w3.org/2000/svg" xmlns:xlink="http://www.w3.org/1999/xlink" x="0px" y="0px"
	 viewBox="0 0 166.3 66" style="enable-background:new 0 0 166.3 66;" xml:space="preserve">
<style type="text/css">
	.st0{fill:#DC281E;}
	.st1{font-family:'HelveticaNeue-Bold';}
	.st2{font-size:38.4698px;}
	.st3{fill:#FFFFFF;}
</style>
<text transform="matrix(1 0 0 1 66.4117 49.0418)" class="st0 st1 st2">SIMS</text>
<g>
	<path class="st0" d="M7.4,19.2c0,2.3,0.8,4.5,2.2,6.3l8,10l8-10c1.4-1.8,2.2-4,2.2-6.3c0-5.6-4.6-10.1-10.1-10.1
		C12,9.1,7.4,13.6,7.4,19.2z M13.8,19.2c0-2.1,1.7-3.8,3.8-3.8c2.1,0,3.8,1.7,3.8,3.8c0,2.1-1.7,3.8-3.8,3.8
		C15.5,23,13.8,21.3,13.8,19.2z"/>
	<path class="st3" d="M27.4,27l-6.2,7.8l0,0l-0.8,1l-2.9,3.6L7.8,27c-0.2-0.2-0.3-0.4-0.4-0.6c-1,2.6-1.5,5.4-1.5,8.3
		c0,13.2,10.7,23.9,23.9,23.9c13.2,0,23.9-10.7,23.9-23.9S42.9,10.8,29.7,10.8c-0.9,0-1.8,0.1-2.7,0.2c1.4,1.5,2.3,3.4,2.8,5.5
		C29.8,16.4,31.5,21.9,27.4,27z M43.3,19.2c0.5,0.4,1,0.9,1.4,1.4L44,20.9l-0.3-0.8L43.1,20L43,19.5L43.3,19.2z M39.3,24.7l1-0.2
		l1.1,0.2l0.1-0.6l-0.5-0.1l0.2-1l1.1-0.2l0.8-1.1l0.8-0.1l0.7,0.1H45l-0.1-0.8c1.3,1.5,2.5,3.1,3.3,4.9l-0.3,1l-0.9-0.9l0-0.9
		l-0.8-0.7L46,23.9h-1l0.3,0.9l1.1,0.6l0.2,0.2l-0.2,0.1l0,0.7l-0.6,0.2l-0.5-0.1l-0.3-0.4l0.8,0l0.2-0.3l-1.7-1.2l-0.1-0.5
		l-0.7,0.6l-0.7-0.1l-1.1,1.4l-0.2,0.5l-0.7,0.1l-1,0l-0.6-0.3L39,25.2L39.3,24.7z M34,40.7l-0.9,1.2l-0.3,2.7l-0.9,0.7l-1.3,0
		L30.2,46l0.3,1.4l-1.4,1.8l-0.4,0.8l-1.3,0.6l-0.9,0.1l0,0.4l0.6,0.2l-0.1,0.4l-0.5,0.5l0.3,0.4l0.7,0l0,0.5l-0.2,0.5L27.2,54
		l1,0.8l-0.1,0.4l-1,0c-0.1,0-0.3,0-0.4-0.1L25.4,54l-1-1.8l0.1-1.7l-0.8-1l0.3-1.7l-0.5-0.1v-3.8c0,0-1.3-1-1.4-1
		c-0.1,0-0.7-0.2-0.7-0.2L21.5,42l-1.7-2.1l0.2-0.8l0.1-1.2l1.2-0.8l-0.1-1.2l0.4-0.6l1.1-1.3l1.4,0.3l0.5,0.7l1.3-0.1l0-0.4
		l0.7,0.3l0.8,1.3l1.4,0l0.5,0.9l0.1,1.1l1.5,0.6l1.9,0l0.6,0.9l0.9,0.3L34,40.7z M46.4,46.9L45.7,46v-1.8l-0.6-0.6L45,42.9l0.8-1.6
		l-1.5-2.7l0.2-1.9l-1.4-0.1l-0.5-0.5h-0.9l-0.5,0.4h-1.6l-0.1,0.1h-0.9l-2.1-2.4l0-1.9l0.3-0.1l0.1-0.7h-0.5l-0.2-0.8l2.4-1.8v-1.2
		l1.2-0.7l0.5,0h1l0.8-0.4l2.5-0.2v1.3l2,0.5l0.4,0.3h0.4v-0.7l1.1-0.1l1,0.8c0.6,1.9,0.9,4,0.9,6.1C50.4,39.3,48.9,43.5,46.4,46.9z
		"/>
</g>
</svg>
